<svg xmlns="http://www.w3.org/2000/svg" viewBox="0 0 24 24">

  <defs>
    <style>
    <![CDATA[
      g { display: none; }
      g:target { display: inline; }
    ]]>
    </style>
  </defs>

  <g id="code">
    <path d="M12.89,3L14.85,3.4L11.11,21L9.15,20.6L12.89,3M19.59,12L16,8.41V5.58L22.42,12L16,18.41V15.58L19.59,12M1.58,12L8,5.58V8.41L4.41,12L8,15.58V18.41L1.58,12Z" />
  </g>

  <g id="menu">
    <path d="M3,6H21V8H3V6M3,11H21V13H3V11M3,16H21V18H3V16Z" />
  </g>

  <g id="arrow-up">
    <path d="M13,20H11V8L5.5,13.5L4.08,12.08L12,4.16L19.92,12.08L18.5,13.5L13,8V20Z" />
  </g>

  <g id="sun">
    <path d="M3.55 19.09L4.96 20.5L6.76 18.71L5.34 17.29M12 6C8.69 6 6 8.69 6 12S8.69 18 12 18 18 15.31 18 12C18 8.68 15.31 6 12 6M20 13H23V11H20M17.24 18.71L19.04 20.5L20.45 19.09L18.66 17.29M20.45 5L19.04 3.6L17.24 5.39L18.66 6.81M13 1H11V4H13M6.76 5.39L4.96 3.6L3.55 5L5.34 6.81L6.76 5.39M1 13H4V11H1M13 20H11V23H13" />
  </g>

  <g id="moon">
    <path d="M2 12A10 10 0 0 0 15 21.54A10 10 0 0 1 15 2.46A10 10 0 0 0 2 12Z" />
  </g>

  <g id="font-decrease">
    <path d="M5.12,14L7.5,7.67L9.87,14M6.5,5L1,19H3.25L4.37,16H10.62L11.75,19H14L8.5,5H6.5M18,17L23,11.93L21.59,10.5L19,13.1V7H17V13.1L14.41,10.5L13,11.93L18,17Z" />
  </g>

  <g id="font-increase">
    <path d="M5.12,14L7.5,7.67L9.87,14M6.5,5L1,19H3.25L4.37,16H10.62L11.75,19H14L8.5,5H6.5M18,7L13,12.07L14.41,13.5L17,10.9V17H19V10.9L21.59,13.5L23,12.07L18,7Z" />
  </g>

  <g id="search">
    <path d="M9.5,3A6.5,6.5 0 0,1 16,9.5C16,11.11 15.41,12.59 14.44,13.73L14.71,14H15.5L20.5,19L19,20.5L14,15.5V14.71L13.73,14.44C12.59,15.41 11.11,16 9.5,16A6.5,6.5 0 0,1 3,9.5A6.5,6.5 0 0,1 9.5,3M9.5,5C7,5 5,7 5,9.5C5,12 7,14 9.5,14C12,14 14,12 14,9.5C14,7 12,5 9.5,5Z" />
  </g>

  <g id="chevron-down">
    <path d="M22,12A10,10 0 0,1 12,22A10,10 0 0,1 2,12A10,10 0 0,1 12,2A10,10 0 0,1 22,12M20,12A8,8 0 0,0 12,4A8,8 0 0,0 4,12A8,8 0 0,0 12,20A8,8 0 0,0 20,12M6,10L12,16L18,10L16.6,8.6L12,13.2L7.4,8.6L6,10Z" />
  </g>

  <g id="bullet-level-1">
    <path d="M12,2A10,10 0 0,0 2,12A10,10 0 0,0 12,22A10,10 0 0,0 22,12A10,10 0 0,0 12,2Z" />
  </g>

  <g id="bullet-level-2">
    <path d="M12,2A10,10 0 0,0 2,12A10,10 0 0,0 12,22A10,10 0 0,0 22,12A10,10 0 0,0 12,2M12,8A4,4 0 0,1 16,12A4,4 0 0,1 12,16A4,4 0 0,1 8,12A4,4 0 0,1 12,8Z" />
  </g>

  <g id="bullet-level-3">
    <path d="M12,2A10,10 0 0,0 2,12A10,10 0 0,0 12,22A10,10 0 0,0 22,12A10,10 0 0,0 12,2M12,18A6,6 0 0,1 6,12A6,6 0 0,1 12,6A6,6 0 0,1 18,12A6,6 0 0,1 12,18Z" />
  </g>

  <g id="arrow-right">
    <path d="M4,11V13H16L10.5,18.5L11.92,19.92L19.84,12L11.92,4.08L10.5,5.5L16,11H4Z" />
  </g>

  <g id="arrow-top-right">
    <path d="M5,17.59L15.59,7H9V5H19V15H17V8.41L6.41,19L5,17.59Z" />
  </g>

  <g id="arrow-up-down">
    <path d="M17.45,17.55L12,23L6.55,17.55L7.96,16.14L11,19.17V4.83L7.96,7.86L6.55,6.45L12,1L17.45,6.45L16.04,7.86L13,4.83V19.17L16.04,16.14L17.45,17.55Z" />
  </g>

  <g id="email">
    <path d="M22 6C22 4.9 21.1 4 20 4H4C2.9 4 2 4.9 2 6V18C2 19.1 2.9 20 4 20H20C21.1 20 22 19.1 22 18V6M20 6L12 11L4 6H20M20 18H4V8L12 13L20 8V18Z" />
  </g>

  <g id="phone">
    <path d="M20,15.5C18.8,15.5 17.5,15.3 16.4,14.9C16.3,14.9 16.2,14.9 16.1,14.9C15.8,14.9 15.6,15 15.4,15.2L13.2,17.4C10.4,15.9 8,13.6 6.6,10.8L8.8,8.6C9.1,8.3 9.2,7.9 9,7.6C8.7,6.5 8.5,5.2 8.5,4C8.5,3.5 8,3 7.5,3H4C3.5,3 3,3.5 3,4C3,13.4 10.6,21 20,21C20.5,21 21,20.5 21,20V16.5C21,16 20.5,15.5 20,15.5M5,5H6.5C6.6,5.9 6.8,6.8 7,7.6L5.8,8.8C5.4,7.6 5.1,6.3 5,5M19,19C17.7,18.9 16.4,18.6 15.2,18.2L16.4,17C17.2,17.2 18.1,17.4 19,17.4V19Z" />
  </g>

  <g id="document">
    <path d="M6,2A2,2 0 0,0 4,4V20A2,2 0 0,0 6,22H18A2,2 0 0,0 20,20V8L14,2H6M6,4H13V9H18V20H6V4M8,12V14H16V12H8M8,16V18H13V16H8Z" />
  </g>

</svg>